# xmcd CD database file
#
# Track frame offsets:
#	150
#	17489
#	36287
#	53633
#
# Disc length: 959 seconds
#
# Revision: 5
# Processed by: cddbd v1.5.2PL0 Copyright (c) Steve Scherf et al.
# Submitted via: CDex 1.70beta3
#
DISCID=2603bd04
DTITLE=L'Arc～en～Ciel - NEXUS 4 - SHINE
DYEAR=2008
DGENRE=J-Pop
TTITLE0=NEXUS 4
TTITLE1=SHINE
TTITLE2=NEXUS 4 (hydeless version)
TTITLE3=SHINE (hydeless version)
EXTD=YEAR: 2008
EXTT0=
EXTT1=
EXTT2=
EXTT3=
PLAYORDER=
